<svg xmlns="http://www.w3.org/2000/svg" viewBox="0 0 1200 900" role="img" aria-labelledby="title desc">
  <title id="title">Ayurvedic consultation studio</title>
  <desc id="desc">A quiet Ayurvedic consultation table with herbs, oils, pulse reading notes, and botanical leaves.</desc>
  <defs>
    <linearGradient id="wall" x1="0" x2="1" y1="0" y2="1">
      <stop offset="0" stop-color="#f7efe5"/>
      <stop offset=".52" stop-color="#e7f2e5"/>
      <stop offset="1" stop-color="#d8e8df"/>
    </linearGradient>
    <linearGradient id="table" x1="0" x2="1">
      <stop offset="0" stop-color="#693f35"/>
      <stop offset="1" stop-color="#a5683d"/>
    </linearGradient>
    <filter id="shadow" x="-20%" y="-20%" width="140%" height="140%">
      <feDropShadow dx="0" dy="18" stdDeviation="20" flood-color="#493229" flood-opacity=".2"/>
    </filter>
    <pattern id="linen" width="36" height="36" patternUnits="userSpaceOnUse">
      <path d="M0 18h36M18 0v36" stroke="#fff8ec" stroke-opacity=".35" stroke-width="2"/>
    </pattern>
  </defs>
  <rect width="1200" height="900" fill="url(#wall)"/>
  <rect y="612" width="1200" height="288" fill="#77513d"/>
  <path d="M0 614c140 42 292 44 456 11 170-34 325-27 465 20 112 38 208 35 279-10v265H0z" fill="#684435"/>
  <g opacity=".22" fill="none" stroke="#2f6547" stroke-width="5">
    <path d="M85 533c84-126 161-210 284-276"/>
    <path d="M905 589c-44-153-25-279 85-421"/>
    <path d="M1021 587c38-143 86-239 161-324"/>
  </g>
  <g fill="#2f6547">
    <path d="M235 344c-69-64-109-116-120-154 44 0 93 38 148 114 12 17-13 54-28 40z"/>
    <path d="M314 298c-19-92-17-158 8-198 36 27 48 87 36 180-3 21-40 39-44 18z"/>
    <path d="M965 281c-18-95-8-167 31-216 39 49 47 121 24 215-5 22-51 23-55 1z"/>
    <path d="M1048 366c72-60 134-89 185-86-16 50-68 95-157 135-20 9-47-35-28-49z"/>
    <path d="M1087 487c81-31 144-39 188-23-30 38-88 64-175 79-20 4-32-48-13-56z"/>
  </g>
  <ellipse cx="602" cy="661" rx="436" ry="95" fill="#3e2b25" opacity=".2"/>
  <g filter="url(#shadow)">
    <path d="M250 400h700c26 0 47 21 47 47v209H203V447c0-26 21-47 47-47z" fill="url(#table)"/>
    <rect x="203" y="475" width="794" height="181" fill="url(#linen)" opacity=".55"/>
    <path d="M248 656h706l-42 130H291z" fill="#54372d"/>
  </g>
  <g>
    <rect x="446" y="313" width="308" height="258" rx="8" fill="#fff8eb" stroke="#805d48" stroke-width="6"/>
    <path d="M490 367h220M490 421h184M490 475h216" stroke="#9a7359" stroke-width="16" stroke-linecap="round"/>
    <circle cx="686" cy="510" r="28" fill="#c86c34"/>
    <path d="M556 509c34-45 64-67 90-65-5 33-31 61-77 85-12 6-21-9-13-20z" fill="#477b57"/>
  </g>
  <g>
    <ellipse cx="339" cy="512" rx="86" ry="38" fill="#2d4035" opacity=".18"/>
    <path d="M282 486h114l-20 70h-74z" fill="#364e3d"/>
    <path d="M288 484c18-46 37-78 58-96 25 23 38 55 39 96z" fill="#517c58"/>
    <path d="M321 482c-37-44-55-83-54-117 45 9 79 42 101 97 7 17-34 36-47 20z" fill="#35664b"/>
    <path d="M349 475c28-62 61-103 99-121 18 45 3 92-47 141-15 15-61-.4-52-20z" fill="#63905c"/>
  </g>
  <g>
    <rect x="785" y="489" width="58" height="128" rx="15" fill="#e5a33a"/>
    <rect x="795" y="456" width="38" height="42" rx="12" fill="#734335"/>
    <rect x="773" y="533" width="82" height="45" rx="8" fill="#fff3cf"/>
    <path d="M797 555h36" stroke="#8a624a" stroke-width="8" stroke-linecap="round"/>
  </g>
  <g>
    <rect x="658" y="515" width="62" height="102" rx="12" fill="#315d4a"/>
    <rect x="669" y="491" width="40" height="31" rx="9" fill="#5e392e"/>
    <rect x="651" y="552" width="76" height="35" rx="7" fill="#f4e7c0"/>
  </g>
  <g fill="none" stroke-linecap="round">
    <path d="M342 615c62-43 119-43 171 0" stroke="#fff2d0" stroke-width="18"/>
    <path d="M371 615c42-23 80-23 113 0" stroke="#6c4938" stroke-width="8"/>
    <path d="M842 633c50-32 94-31 132 1" stroke="#fff2d0" stroke-width="16"/>
  </g>
</svg>
